# xmcd
#
# Track frame offsets:
#	150
#	9101
#	20702
#	30372
#	38956
#	49558
#	59626
#	70118
#	80790
#	90479
#	102145
#	112669
#	121290
#	130150
#	140011
#	150550
#	159616
#	170700
#	181254
#	189205
#
# Disc length: 2636 seconds
#
# Revision: 0
# Processed by: cddbd v1.5.2PL0 Copyright (c) Steve Scherf et al.
# Submitted via: EasyCDDAExtractor 15.3.0.1
#
DISCID=fb0a4a14
DTITLE=Johnny Horton - Country Hero, Cd 2
DYEAR=2012
DGENRE=Country
TTITLE0=I'm a one Woman Man
TTITLE1=Take Me Like I Am
TTITLE2=I Don't Like I Did (Before)
TTITLE3=Hooray for That Little Difference
TTITLE4=She Knows Why
TTITLE5=The Women I Need (Honky Tonk Mind)
TTITLE6=Goodbye Lonesome, Hello Baby Doll
TTITLE7=I'll Do it Every Time
TTITLE8=Let's Take the Long Way Home
TTITLE9=Lovers Rock
TTITLE10=Honky Tonk Hard Wood Floor
TTITLE11=The Wild One
TTITLE12=Hot in Sugarcane Field
TTITLE13=Wise to the Way of a Woman
TTITLE14=Out in New Mexico
TTITLE15=I Love You Baby
TTITLE16=Cherokee Boogie
TTITLE17=Ole Slew Foot
TTITLE18=You Don't Move My Baby Anymore
TTITLE19=All Grown Up
EXTD=
EXTT0=
EXTT1=
EXTT2=
EXTT3=
EXTT4=
EXTT5=
EXTT6=
EXTT7=
EXTT8=
EXTT9=
EXTT10=
EXTT11=
EXTT12=
EXTT13=
EXTT14=
EXTT15=
EXTT16=
EXTT17=
EXTT18=
EXTT19=
PLAYORDER=
